<mxfile host="app.diagrams.net" agent="Mozilla/5.0 (Windows NT 10.0; Win64; x64) AppleWebKit/537.36 (KHTML, like Gecko) Chrome/135.0.0.0 Safari/537.36" version="26.2.14">
  <diagram id="C5RBs43oDa-KdzZeNtuy" name="Page-1">
    <mxGraphModel dx="1554" dy="823" grid="1" gridSize="10" guides="1" tooltips="1" connect="1" arrows="1" fold="1" page="1" pageScale="1" pageWidth="827" pageHeight="1169" math="0" shadow="0">
      <root>
        <mxCell id="WIyWlLk6GJQsqaUBKTNV-0" />
        <mxCell id="WIyWlLk6GJQsqaUBKTNV-1" parent="WIyWlLk6GJQsqaUBKTNV-0" />
        <mxCell id="eKyOWcJKqV3oVxr9_lFu-9" value="1" style="edgeStyle=orthogonalEdgeStyle;rounded=0;orthogonalLoop=1;jettySize=auto;endArrow=none;endFill=0;html=1;labelPosition=right;verticalLabelPosition=middle;align=left;verticalAlign=middle;" parent="WIyWlLk6GJQsqaUBKTNV-1" source="eKyOWcJKqV3oVxr9_lFu-5" target="eKyOWcJKqV3oVxr9_lFu-8" edge="1">
          <mxGeometry x="-0.8286" relative="1" as="geometry">
            <mxPoint as="offset" />
          </mxGeometry>
        </mxCell>
        <mxCell id="eKyOWcJKqV3oVxr9_lFu-5" value="&lt;font style=&quot;font-size: 16px;&quot;&gt;Party&lt;/font&gt;" style="rounded=1;whiteSpace=wrap;html=1;" parent="WIyWlLk6GJQsqaUBKTNV-1" vertex="1">
          <mxGeometry x="342" y="599" width="104" height="40" as="geometry" />
        </mxCell>
        <mxCell id="eKyOWcJKqV3oVxr9_lFu-12" value="0..*" style="edgeStyle=orthogonalEdgeStyle;rounded=0;orthogonalLoop=1;jettySize=auto;html=1;endArrow=none;endFill=0;" parent="WIyWlLk6GJQsqaUBKTNV-1" source="eKyOWcJKqV3oVxr9_lFu-8" target="eKyOWcJKqV3oVxr9_lFu-11" edge="1">
          <mxGeometry x="0.3333" y="-2" relative="1" as="geometry">
            <mxPoint as="offset" />
          </mxGeometry>
        </mxCell>
        <mxCell id="eKyOWcJKqV3oVxr9_lFu-8" value="&lt;font style=&quot;font-size: 16px;&quot;&gt;tartozik&lt;/font&gt;" style="rhombus;whiteSpace=wrap;html=1;" parent="WIyWlLk6GJQsqaUBKTNV-1" vertex="1">
          <mxGeometry x="232" y="689" width="80" height="60" as="geometry" />
        </mxCell>
        <mxCell id="eKyOWcJKqV3oVxr9_lFu-11" value="&lt;span style=&quot;font-size: 16px;&quot;&gt;Ital követelmény&lt;/span&gt;" style="rounded=1;whiteSpace=wrap;html=1;" parent="WIyWlLk6GJQsqaUBKTNV-1" vertex="1">
          <mxGeometry x="220" y="809" width="104" height="40" as="geometry" />
        </mxCell>
        <mxCell id="eKyOWcJKqV3oVxr9_lFu-13" value="1" style="edgeStyle=orthogonalEdgeStyle;rounded=0;orthogonalLoop=1;jettySize=auto;html=1;endArrow=none;endFill=0;exitX=1;exitY=0.5;exitDx=0;exitDy=0;" parent="WIyWlLk6GJQsqaUBKTNV-1" source="eKyOWcJKqV3oVxr9_lFu-5" target="eKyOWcJKqV3oVxr9_lFu-15" edge="1">
          <mxGeometry x="-0.7705" relative="1" as="geometry">
            <mxPoint x="492" y="609" as="sourcePoint" />
            <mxPoint as="offset" />
          </mxGeometry>
        </mxCell>
        <mxCell id="eKyOWcJKqV3oVxr9_lFu-14" value="0..*" style="edgeStyle=orthogonalEdgeStyle;rounded=0;orthogonalLoop=1;jettySize=auto;html=1;endArrow=none;endFill=0;entryX=0.5;entryY=0;entryDx=0;entryDy=0;" parent="WIyWlLk6GJQsqaUBKTNV-1" source="eKyOWcJKqV3oVxr9_lFu-15" target="eKyOWcJKqV3oVxr9_lFu-16" edge="1">
          <mxGeometry x="0.3333" relative="1" as="geometry">
            <mxPoint x="522" y="819" as="targetPoint" />
            <mxPoint as="offset" />
          </mxGeometry>
        </mxCell>
        <mxCell id="eKyOWcJKqV3oVxr9_lFu-15" value="&lt;font style=&quot;font-size: 16px;&quot;&gt;tartozik&lt;/font&gt;" style="rhombus;whiteSpace=wrap;html=1;" parent="WIyWlLk6GJQsqaUBKTNV-1" vertex="1">
          <mxGeometry x="458" y="689" width="80" height="60" as="geometry" />
        </mxCell>
        <mxCell id="eKyOWcJKqV3oVxr9_lFu-16" value="&lt;span style=&quot;font-size: 16px;&quot;&gt;Étel követelmény&lt;/span&gt;" style="rounded=1;whiteSpace=wrap;html=1;" parent="WIyWlLk6GJQsqaUBKTNV-1" vertex="1">
          <mxGeometry x="446" y="809" width="104" height="40" as="geometry" />
        </mxCell>
        <mxCell id="eKyOWcJKqV3oVxr9_lFu-19" value="1" style="edgeStyle=orthogonalEdgeStyle;rounded=0;orthogonalLoop=1;jettySize=auto;html=1;endArrow=none;endFill=0;exitX=0.5;exitY=1;exitDx=0;exitDy=0;" parent="WIyWlLk6GJQsqaUBKTNV-1" source="eKyOWcJKqV3oVxr9_lFu-11" target="eKyOWcJKqV3oVxr9_lFu-21" edge="1">
          <mxGeometry x="-0.322" relative="1" as="geometry">
            <mxPoint x="282" y="869" as="sourcePoint" />
            <mxPoint as="offset" />
          </mxGeometry>
        </mxCell>
        <mxCell id="eKyOWcJKqV3oVxr9_lFu-20" value="0..*" style="edgeStyle=orthogonalEdgeStyle;rounded=0;orthogonalLoop=1;jettySize=auto;html=1;endArrow=none;endFill=0;" parent="WIyWlLk6GJQsqaUBKTNV-1" source="eKyOWcJKqV3oVxr9_lFu-21" target="eKyOWcJKqV3oVxr9_lFu-22" edge="1">
          <mxGeometry x="0.24" relative="1" as="geometry">
            <mxPoint as="offset" />
          </mxGeometry>
        </mxCell>
        <mxCell id="eKyOWcJKqV3oVxr9_lFu-21" value="&lt;font style=&quot;font-size: 16px;&quot;&gt;tartozik&lt;/font&gt;" style="rhombus;whiteSpace=wrap;html=1;" parent="WIyWlLk6GJQsqaUBKTNV-1" vertex="1">
          <mxGeometry x="232" y="908" width="80" height="60" as="geometry" />
        </mxCell>
        <mxCell id="eKyOWcJKqV3oVxr9_lFu-22" value="&lt;span style=&quot;font-size: 16px;&quot;&gt;Ital hozzájárulás&lt;/span&gt;" style="rounded=1;whiteSpace=wrap;html=1;" parent="WIyWlLk6GJQsqaUBKTNV-1" vertex="1">
          <mxGeometry x="220" y="1018" width="104" height="40" as="geometry" />
        </mxCell>
        <mxCell id="eKyOWcJKqV3oVxr9_lFu-24" value="1" style="edgeStyle=orthogonalEdgeStyle;rounded=0;orthogonalLoop=1;jettySize=auto;html=1;endArrow=none;endFill=0;exitX=0.5;exitY=1;exitDx=0;exitDy=0;" parent="WIyWlLk6GJQsqaUBKTNV-1" source="eKyOWcJKqV3oVxr9_lFu-16" target="eKyOWcJKqV3oVxr9_lFu-26" edge="1">
          <mxGeometry x="-0.3333" relative="1" as="geometry">
            <mxPoint x="558" y="828" as="sourcePoint" />
            <mxPoint as="offset" />
          </mxGeometry>
        </mxCell>
        <mxCell id="eKyOWcJKqV3oVxr9_lFu-25" value="0..*" style="edgeStyle=orthogonalEdgeStyle;rounded=0;orthogonalLoop=1;jettySize=auto;html=1;endArrow=none;endFill=0;" parent="WIyWlLk6GJQsqaUBKTNV-1" source="eKyOWcJKqV3oVxr9_lFu-26" target="eKyOWcJKqV3oVxr9_lFu-27" edge="1">
          <mxGeometry x="0.2245" y="2" relative="1" as="geometry">
            <mxPoint as="offset" />
          </mxGeometry>
        </mxCell>
        <mxCell id="eKyOWcJKqV3oVxr9_lFu-26" value="&lt;font style=&quot;font-size: 16px;&quot;&gt;tartozik&lt;/font&gt;" style="rhombus;whiteSpace=wrap;html=1;" parent="WIyWlLk6GJQsqaUBKTNV-1" vertex="1">
          <mxGeometry x="458" y="909" width="80" height="60" as="geometry" />
        </mxCell>
        <mxCell id="eKyOWcJKqV3oVxr9_lFu-27" value="&lt;span style=&quot;font-size: 16px;&quot;&gt;Étel hozzájárulás&lt;/span&gt;" style="rounded=1;whiteSpace=wrap;html=1;" parent="WIyWlLk6GJQsqaUBKTNV-1" vertex="1">
          <mxGeometry x="446" y="1018" width="104" height="40" as="geometry" />
        </mxCell>
        <mxCell id="eKyOWcJKqV3oVxr9_lFu-32" value="0..*" style="edgeStyle=orthogonalEdgeStyle;rounded=0;orthogonalLoop=1;jettySize=auto;html=1;endArrow=none;endFill=0;entryX=0.5;entryY=0;entryDx=0;entryDy=0;exitX=1;exitY=1;exitDx=0;exitDy=0;textDirection=ltr;" parent="WIyWlLk6GJQsqaUBKTNV-1" source="eKyOWcJKqV3oVxr9_lFu-29" target="eKyOWcJKqV3oVxr9_lFu-31" edge="1">
          <mxGeometry x="-0.5909" relative="1" as="geometry">
            <mxPoint x="460" y="359" as="sourcePoint" />
            <mxPoint x="478" y="449" as="targetPoint" />
            <Array as="points">
              <mxPoint x="446" y="379" />
            </Array>
            <mxPoint as="offset" />
          </mxGeometry>
        </mxCell>
        <mxCell id="eKyOWcJKqV3oVxr9_lFu-35" value="1" style="edgeStyle=orthogonalEdgeStyle;rounded=0;orthogonalLoop=1;jettySize=auto;html=1;entryX=0.5;entryY=0;entryDx=0;entryDy=0;endArrow=none;endFill=0;exitX=0;exitY=1;exitDx=0;exitDy=0;labelPosition=center;verticalLabelPosition=middle;align=center;verticalAlign=middle;" parent="WIyWlLk6GJQsqaUBKTNV-1" source="eKyOWcJKqV3oVxr9_lFu-29" target="eKyOWcJKqV3oVxr9_lFu-30" edge="1">
          <mxGeometry x="-0.573" relative="1" as="geometry">
            <mxPoint x="296" y="359" as="sourcePoint" />
            <mxPoint x="277" y="449" as="targetPoint" />
            <Array as="points">
              <mxPoint x="305" y="379" />
            </Array>
            <mxPoint as="offset" />
          </mxGeometry>
        </mxCell>
        <mxCell id="eKyOWcJKqV3oVxr9_lFu-48" value="1" style="edgeStyle=orthogonalEdgeStyle;rounded=0;orthogonalLoop=1;jettySize=auto;html=1;entryX=0.915;entryY=0.503;entryDx=0;entryDy=0;exitX=0.15;exitY=-0.09;exitDx=0;exitDy=0;exitPerimeter=0;endArrow=none;endFill=0;entryPerimeter=0;" parent="WIyWlLk6GJQsqaUBKTNV-1" target="eKyOWcJKqV3oVxr9_lFu-46" edge="1">
          <mxGeometry x="-0.5439" relative="1" as="geometry">
            <mxPoint x="232" y="333" as="targetPoint" />
            <mxPoint x="339.5999999999999" y="339.4" as="sourcePoint" />
            <Array as="points">
              <mxPoint x="340" y="333" />
            </Array>
            <mxPoint as="offset" />
          </mxGeometry>
        </mxCell>
        <mxCell id="eKyOWcJKqV3oVxr9_lFu-71" value="1" style="edgeStyle=orthogonalEdgeStyle;rounded=0;orthogonalLoop=1;jettySize=auto;html=1;entryX=0.5;entryY=0;entryDx=0;entryDy=0;exitX=0;exitY=0.75;exitDx=0;exitDy=0;endArrow=none;endFill=0;" parent="WIyWlLk6GJQsqaUBKTNV-1" source="eKyOWcJKqV3oVxr9_lFu-29" target="eKyOWcJKqV3oVxr9_lFu-67" edge="1">
          <mxGeometry x="-0.8776" relative="1" as="geometry">
            <Array as="points">
              <mxPoint x="250" y="369" />
              <mxPoint x="250" y="659" />
              <mxPoint x="160" y="659" />
            </Array>
            <mxPoint as="offset" />
          </mxGeometry>
        </mxCell>
        <mxCell id="eKyOWcJKqV3oVxr9_lFu-74" value="1" style="edgeStyle=orthogonalEdgeStyle;rounded=0;orthogonalLoop=1;jettySize=auto;html=1;entryX=0.5;entryY=0;entryDx=0;entryDy=0;endArrow=none;endFill=0;" parent="WIyWlLk6GJQsqaUBKTNV-1" source="eKyOWcJKqV3oVxr9_lFu-29" target="eKyOWcJKqV3oVxr9_lFu-68" edge="1">
          <mxGeometry x="-0.8986" relative="1" as="geometry">
            <Array as="points">
              <mxPoint x="230" y="359" />
              <mxPoint x="230" y="639" />
              <mxPoint x="90" y="639" />
            </Array>
            <mxPoint as="offset" />
          </mxGeometry>
        </mxCell>
        <mxCell id="eKyOWcJKqV3oVxr9_lFu-83" value="1" style="edgeStyle=orthogonalEdgeStyle;rounded=0;orthogonalLoop=1;jettySize=auto;html=1;entryX=0.5;entryY=0;entryDx=0;entryDy=0;endArrow=none;endFill=0;" parent="WIyWlLk6GJQsqaUBKTNV-1" target="eKyOWcJKqV3oVxr9_lFu-75" edge="1">
          <mxGeometry x="-0.8799" relative="1" as="geometry">
            <mxPoint x="430" y="369" as="sourcePoint" />
            <mxPoint x="640" y="539" as="targetPoint" />
            <mxPoint as="offset" />
          </mxGeometry>
        </mxCell>
        <mxCell id="eKyOWcJKqV3oVxr9_lFu-84" value="1" style="edgeStyle=orthogonalEdgeStyle;rounded=0;orthogonalLoop=1;jettySize=auto;html=1;entryX=0.5;entryY=0;entryDx=0;entryDy=0;endArrow=none;endFill=0;" parent="WIyWlLk6GJQsqaUBKTNV-1" source="eKyOWcJKqV3oVxr9_lFu-29" target="eKyOWcJKqV3oVxr9_lFu-78" edge="1">
          <mxGeometry x="-0.8978" relative="1" as="geometry">
            <mxPoint as="offset" />
          </mxGeometry>
        </mxCell>
        <mxCell id="eKyOWcJKqV3oVxr9_lFu-98" value="1" style="edgeStyle=orthogonalEdgeStyle;rounded=0;orthogonalLoop=1;jettySize=auto;html=1;entryX=0;entryY=0.5;entryDx=0;entryDy=0;endArrow=none;endFill=0;" parent="WIyWlLk6GJQsqaUBKTNV-1" source="eKyOWcJKqV3oVxr9_lFu-29" target="eKyOWcJKqV3oVxr9_lFu-95" edge="1">
          <mxGeometry x="-0.9286" relative="1" as="geometry">
            <Array as="points">
              <mxPoint x="380" y="119" />
            </Array>
            <mxPoint as="offset" />
          </mxGeometry>
        </mxCell>
        <mxCell id="eKyOWcJKqV3oVxr9_lFu-99" value="1" style="edgeStyle=orthogonalEdgeStyle;rounded=0;orthogonalLoop=1;jettySize=auto;html=1;entryX=0;entryY=0.5;entryDx=0;entryDy=0;endArrow=none;endFill=0;" parent="WIyWlLk6GJQsqaUBKTNV-1" source="eKyOWcJKqV3oVxr9_lFu-29" target="eKyOWcJKqV3oVxr9_lFu-94" edge="1">
          <mxGeometry x="-0.7895" relative="1" as="geometry">
            <Array as="points">
              <mxPoint x="390" y="199" />
            </Array>
            <mxPoint as="offset" />
          </mxGeometry>
        </mxCell>
        <mxCell id="eKyOWcJKqV3oVxr9_lFu-100" value="2" style="edgeStyle=orthogonalEdgeStyle;rounded=0;orthogonalLoop=1;jettySize=auto;html=1;entryX=0;entryY=0.5;entryDx=0;entryDy=0;endArrow=none;endFill=0;" parent="WIyWlLk6GJQsqaUBKTNV-1" source="eKyOWcJKqV3oVxr9_lFu-29" target="eKyOWcJKqV3oVxr9_lFu-105" edge="1">
          <mxGeometry x="-0.4" relative="1" as="geometry">
            <Array as="points">
              <mxPoint x="400" y="279" />
            </Array>
            <mxPoint as="offset" />
          </mxGeometry>
        </mxCell>
        <mxCell id="eKyOWcJKqV3oVxr9_lFu-29" value="&lt;span style=&quot;font-size: 16px;&quot;&gt;Felhasználó&lt;/span&gt;" style="rounded=1;whiteSpace=wrap;html=1;" parent="WIyWlLk6GJQsqaUBKTNV-1" vertex="1">
          <mxGeometry x="330" y="339" width="98" height="40" as="geometry" />
        </mxCell>
        <mxCell id="eKyOWcJKqV3oVxr9_lFu-36" value="0..*" style="edgeStyle=orthogonalEdgeStyle;rounded=0;orthogonalLoop=1;jettySize=auto;html=1;endArrow=none;endFill=0;entryX=0.25;entryY=0;entryDx=0;entryDy=0;labelPosition=right;verticalLabelPosition=middle;align=left;verticalAlign=middle;" parent="WIyWlLk6GJQsqaUBKTNV-1" source="eKyOWcJKqV3oVxr9_lFu-30" target="eKyOWcJKqV3oVxr9_lFu-5" edge="1">
          <mxGeometry x="0.6078" y="-8" relative="1" as="geometry">
            <mxPoint as="offset" />
          </mxGeometry>
        </mxCell>
        <mxCell id="eKyOWcJKqV3oVxr9_lFu-30" value="&lt;font style=&quot;font-size: 16px;&quot;&gt;Szervez&lt;/font&gt;" style="rhombus;whiteSpace=wrap;html=1;" parent="WIyWlLk6GJQsqaUBKTNV-1" vertex="1">
          <mxGeometry x="265" y="449" width="80" height="60" as="geometry" />
        </mxCell>
        <mxCell id="eKyOWcJKqV3oVxr9_lFu-38" value="0..*" style="edgeStyle=orthogonalEdgeStyle;rounded=0;orthogonalLoop=1;jettySize=auto;html=1;entryX=0.596;entryY=0.01;entryDx=0;entryDy=0;endArrow=none;endFill=0;entryPerimeter=0;" parent="WIyWlLk6GJQsqaUBKTNV-1" source="eKyOWcJKqV3oVxr9_lFu-31" target="eKyOWcJKqV3oVxr9_lFu-5" edge="1">
          <mxGeometry x="0.5408" relative="1" as="geometry">
            <mxPoint as="offset" />
          </mxGeometry>
        </mxCell>
        <mxCell id="eKyOWcJKqV3oVxr9_lFu-31" value="&lt;font style=&quot;font-size: 16px;&quot;&gt;Részvesz&lt;/font&gt;" style="rhombus;whiteSpace=wrap;html=1;" parent="WIyWlLk6GJQsqaUBKTNV-1" vertex="1">
          <mxGeometry x="406" y="449" width="80" height="60" as="geometry" />
        </mxCell>
        <mxCell id="4_J3MpxmB3QuBLHWLx7g-4" value="1" style="edgeStyle=orthogonalEdgeStyle;rounded=0;orthogonalLoop=1;jettySize=auto;html=1;entryX=0.5;entryY=0;entryDx=0;entryDy=0;endArrow=none;endFill=0;" parent="WIyWlLk6GJQsqaUBKTNV-1" source="eKyOWcJKqV3oVxr9_lFu-42" target="eKyOWcJKqV3oVxr9_lFu-93" edge="1">
          <mxGeometry x="-0.6944" y="-1" relative="1" as="geometry">
            <Array as="points">
              <mxPoint x="61" y="510" />
              <mxPoint x="61" y="510" />
            </Array>
            <mxPoint as="offset" />
          </mxGeometry>
        </mxCell>
        <mxCell id="eKyOWcJKqV3oVxr9_lFu-42" value="&lt;span style=&quot;font-size: 16px;&quot;&gt;Party meghívó&lt;/span&gt;&lt;span style=&quot;color: rgba(0, 0, 0, 0); font-family: monospace; font-size: 0px; text-align: start; text-wrap: nowrap;&quot;&gt;%3CmxGraphModel%3E%3Croot%3E%3CmxCell%20id%3D%220%22%2F%3E%3CmxCell%20id%3D%221%22%20parent%3D%220%22%2F%3E%3CmxCell%20id%3D%222%22%20value%3D%22%26lt%3Bspan%20style%3D%26quot%3Bfont-size%3A%2016px%3B%26quot%3B%26gt%3BFelhaszn%C3%A1l%C3%B3%26lt%3B%2Fspan%26gt%3B%22%20style%3D%22rounded%3D1%3BwhiteSpace%3Dwrap%3Bhtml%3D1%3B%22%20vertex%3D%221%22%20parent%3D%221%22%3E%3CmxGeometry%20x%3D%22324%22%20y%3D%22180%22%20width%3D%22104%22%20height%3D%2240%22%20as%3D%22geometry%22%2F%3E%3C%2FmxCell%3E%3C%2Froot%3E%3C%2FmxGraphModel%3E&lt;/span&gt;" style="rounded=1;whiteSpace=wrap;html=1;" parent="WIyWlLk6GJQsqaUBKTNV-1" vertex="1">
          <mxGeometry x="9" y="459" width="104" height="40" as="geometry" />
        </mxCell>
        <mxCell id="eKyOWcJKqV3oVxr9_lFu-44" value="&lt;span style=&quot;font-size: 16px;&quot;&gt;Barát meghívó&lt;/span&gt;&lt;span style=&quot;color: rgba(0, 0, 0, 0); font-family: monospace; font-size: 0px; text-align: start; text-wrap: nowrap;&quot;&gt;%3CmxGraphModel%3E%3Croot%3E%3CmxCell%20id%3D%220%22%2F%3E%3CmxCell%20id%3D%221%22%20parent%3D%220%22%2F%3E%3CmxCell%20id%3D%222%22%20value%3D%22%26lt%3Bspan%20style%3D%26quot%3Bfont-size%3A%2016px%3B%26quot%3B%26gt%3BFelhaszn%C3%A1l%C3%B3%26lt%3B%2Fspan%26gt%3B%22%20style%3D%22rounded%3D1%3BwhiteSpace%3Dwrap%3Bhtml%3D1%3B%22%20vertex%3D%221%22%20parent%3D%221%22%3E%3CmxGeometry%20x%3D%22324%22%20y%3D%22180%22%20width%3D%22104%22%20height%3D%2240%22%20as%3D%22geometry%22%2F%3E%3C%2FmxCell%3E%3C%2Froot%3E%3C%2FmxGraphModel%3E&lt;/span&gt;" style="rounded=1;whiteSpace=wrap;html=1;" parent="WIyWlLk6GJQsqaUBKTNV-1" vertex="1">
          <mxGeometry x="570" y="259" width="104" height="40" as="geometry" />
        </mxCell>
        <mxCell id="eKyOWcJKqV3oVxr9_lFu-49" value="1" style="edgeStyle=orthogonalEdgeStyle;rounded=0;orthogonalLoop=1;jettySize=auto;html=1;endArrow=none;endFill=0;entryX=0.638;entryY=-0.01;entryDx=0;entryDy=0;entryPerimeter=0;" parent="WIyWlLk6GJQsqaUBKTNV-1" target="eKyOWcJKqV3oVxr9_lFu-42" edge="1">
          <mxGeometry x="0.8208" relative="1" as="geometry">
            <mxPoint x="117" y="453" as="targetPoint" />
            <mxPoint x="157.33333333333326" y="333" as="sourcePoint" />
            <Array as="points">
              <mxPoint x="75" y="333" />
            </Array>
            <mxPoint as="offset" />
          </mxGeometry>
        </mxCell>
        <mxCell id="eKyOWcJKqV3oVxr9_lFu-46" value="&lt;font style=&quot;font-size: 16px;&quot;&gt;Léterhoz&lt;/font&gt;" style="rhombus;whiteSpace=wrap;html=1;" parent="WIyWlLk6GJQsqaUBKTNV-1" vertex="1">
          <mxGeometry x="112" y="303" width="80" height="60" as="geometry" />
        </mxCell>
        <mxCell id="eKyOWcJKqV3oVxr9_lFu-54" value="1" style="edgeStyle=orthogonalEdgeStyle;rounded=0;orthogonalLoop=1;jettySize=auto;html=1;entryX=1;entryY=0.5;entryDx=0;entryDy=0;endArrow=none;endFill=0;exitX=0.25;exitY=0;exitDx=0;exitDy=0;" parent="WIyWlLk6GJQsqaUBKTNV-1" source="eKyOWcJKqV3oVxr9_lFu-29" target="eKyOWcJKqV3oVxr9_lFu-56" edge="1">
          <mxGeometry x="-0.8491" relative="1" as="geometry">
            <mxPoint x="145" y="234" as="targetPoint" />
            <mxPoint x="370" y="309" as="sourcePoint" />
            <Array as="points">
              <mxPoint x="350" y="279" />
            </Array>
            <mxPoint as="offset" />
          </mxGeometry>
        </mxCell>
        <mxCell id="eKyOWcJKqV3oVxr9_lFu-55" value="1" style="edgeStyle=orthogonalEdgeStyle;rounded=0;orthogonalLoop=1;jettySize=auto;html=1;endArrow=none;endFill=0;" parent="WIyWlLk6GJQsqaUBKTNV-1" edge="1">
          <mxGeometry x="0.6024" relative="1" as="geometry">
            <mxPoint x="53" y="446" as="targetPoint" />
            <Array as="points">
              <mxPoint x="53" y="459" />
            </Array>
            <mxPoint x="53" y="306" as="sourcePoint" />
            <mxPoint as="offset" />
          </mxGeometry>
        </mxCell>
        <mxCell id="eKyOWcJKqV3oVxr9_lFu-56" value="&lt;font style=&quot;font-size: 16px;&quot;&gt;Válaszol&lt;/font&gt;" style="rhombus;whiteSpace=wrap;html=1;" parent="WIyWlLk6GJQsqaUBKTNV-1" vertex="1">
          <mxGeometry x="14" y="249" width="80" height="60" as="geometry" />
        </mxCell>
        <mxCell id="eKyOWcJKqV3oVxr9_lFu-90" value="0..*" style="edgeStyle=orthogonalEdgeStyle;rounded=0;orthogonalLoop=1;jettySize=auto;html=1;entryX=0;entryY=0.5;entryDx=0;entryDy=0;endArrow=none;endFill=0;" parent="WIyWlLk6GJQsqaUBKTNV-1" source="eKyOWcJKqV3oVxr9_lFu-67" target="eKyOWcJKqV3oVxr9_lFu-11" edge="1">
          <mxGeometry x="0.7143" relative="1" as="geometry">
            <Array as="points">
              <mxPoint x="160" y="829" />
            </Array>
            <mxPoint as="offset" />
          </mxGeometry>
        </mxCell>
        <mxCell id="eKyOWcJKqV3oVxr9_lFu-67" value="&lt;font style=&quot;font-size: 16px;&quot;&gt;Létrehoz&lt;/font&gt;" style="rhombus;whiteSpace=wrap;html=1;" parent="WIyWlLk6GJQsqaUBKTNV-1" vertex="1">
          <mxGeometry x="120" y="689" width="80" height="60" as="geometry" />
        </mxCell>
        <mxCell id="eKyOWcJKqV3oVxr9_lFu-91" value="0..*" style="edgeStyle=orthogonalEdgeStyle;rounded=0;orthogonalLoop=1;jettySize=auto;html=1;entryX=0;entryY=0.5;entryDx=0;entryDy=0;endArrow=none;endFill=0;" parent="WIyWlLk6GJQsqaUBKTNV-1" source="eKyOWcJKqV3oVxr9_lFu-68" target="eKyOWcJKqV3oVxr9_lFu-22" edge="1">
          <mxGeometry x="0.8" y="-1" relative="1" as="geometry">
            <mxPoint x="90" y="1039" as="targetPoint" />
            <Array as="points">
              <mxPoint x="90" y="1038" />
            </Array>
            <mxPoint as="offset" />
          </mxGeometry>
        </mxCell>
        <mxCell id="eKyOWcJKqV3oVxr9_lFu-68" value="&lt;font style=&quot;font-size: 16px;&quot;&gt;Létrehoz&lt;/font&gt;" style="rhombus;whiteSpace=wrap;html=1;" parent="WIyWlLk6GJQsqaUBKTNV-1" vertex="1">
          <mxGeometry x="50" y="908" width="80" height="60" as="geometry" />
        </mxCell>
        <mxCell id="eKyOWcJKqV3oVxr9_lFu-86" value="0..*" style="edgeStyle=orthogonalEdgeStyle;rounded=0;orthogonalLoop=1;jettySize=auto;html=1;entryX=1;entryY=0.5;entryDx=0;entryDy=0;endArrow=none;endFill=0;" parent="WIyWlLk6GJQsqaUBKTNV-1" source="eKyOWcJKqV3oVxr9_lFu-75" target="eKyOWcJKqV3oVxr9_lFu-16" edge="1">
          <mxGeometry x="0.7143" relative="1" as="geometry">
            <Array as="points">
              <mxPoint x="610" y="829" />
            </Array>
            <mxPoint as="offset" />
          </mxGeometry>
        </mxCell>
        <mxCell id="eKyOWcJKqV3oVxr9_lFu-75" value="&lt;font style=&quot;font-size: 16px;&quot;&gt;Létrehoz&lt;/font&gt;" style="rhombus;whiteSpace=wrap;html=1;" parent="WIyWlLk6GJQsqaUBKTNV-1" vertex="1">
          <mxGeometry x="570" y="689" width="80" height="60" as="geometry" />
        </mxCell>
        <mxCell id="eKyOWcJKqV3oVxr9_lFu-89" value="0..*" style="edgeStyle=orthogonalEdgeStyle;rounded=0;orthogonalLoop=1;jettySize=auto;html=1;entryX=1;entryY=0.5;entryDx=0;entryDy=0;endArrow=none;endFill=0;" parent="WIyWlLk6GJQsqaUBKTNV-1" source="eKyOWcJKqV3oVxr9_lFu-78" target="eKyOWcJKqV3oVxr9_lFu-27" edge="1">
          <mxGeometry x="0.8174" relative="1" as="geometry">
            <Array as="points">
              <mxPoint x="700" y="1038" />
            </Array>
            <mxPoint as="offset" />
          </mxGeometry>
        </mxCell>
        <mxCell id="eKyOWcJKqV3oVxr9_lFu-78" value="&lt;font style=&quot;font-size: 16px;&quot;&gt;Létrehoz&lt;/font&gt;" style="rhombus;whiteSpace=wrap;html=1;" parent="WIyWlLk6GJQsqaUBKTNV-1" vertex="1">
          <mxGeometry x="660" y="909" width="80" height="60" as="geometry" />
        </mxCell>
        <mxCell id="4_J3MpxmB3QuBLHWLx7g-3" value="1" style="edgeStyle=orthogonalEdgeStyle;rounded=0;orthogonalLoop=1;jettySize=auto;html=1;entryX=0;entryY=0.25;entryDx=0;entryDy=0;endArrow=none;endFill=0;" parent="WIyWlLk6GJQsqaUBKTNV-1" source="eKyOWcJKqV3oVxr9_lFu-93" target="eKyOWcJKqV3oVxr9_lFu-5" edge="1">
          <mxGeometry x="0.8394" relative="1" as="geometry">
            <Array as="points">
              <mxPoint x="342" y="601" />
            </Array>
            <mxPoint as="offset" />
          </mxGeometry>
        </mxCell>
        <mxCell id="eKyOWcJKqV3oVxr9_lFu-93" value="&lt;font style=&quot;font-size: 16px;&quot;&gt;Tartozik&lt;/font&gt;" style="rhombus;whiteSpace=wrap;html=1;" parent="WIyWlLk6GJQsqaUBKTNV-1" vertex="1">
          <mxGeometry x="21" y="571" width="80" height="60" as="geometry" />
        </mxCell>
        <mxCell id="eKyOWcJKqV3oVxr9_lFu-102" value="0..*" style="edgeStyle=orthogonalEdgeStyle;rounded=0;orthogonalLoop=1;jettySize=auto;html=1;entryX=0.25;entryY=0;entryDx=0;entryDy=0;endArrow=none;endFill=0;" parent="WIyWlLk6GJQsqaUBKTNV-1" source="eKyOWcJKqV3oVxr9_lFu-94" target="eKyOWcJKqV3oVxr9_lFu-44" edge="1">
          <mxGeometry x="0.8529" relative="1" as="geometry">
            <mxPoint x="560" y="229" as="targetPoint" />
            <mxPoint as="offset" />
          </mxGeometry>
        </mxCell>
        <mxCell id="eKyOWcJKqV3oVxr9_lFu-94" value="&lt;font style=&quot;font-size: 16px;&quot;&gt;Léterhoz&lt;/font&gt;" style="rhombus;whiteSpace=wrap;html=1;" parent="WIyWlLk6GJQsqaUBKTNV-1" vertex="1">
          <mxGeometry x="440" y="169" width="80" height="60" as="geometry" />
        </mxCell>
        <mxCell id="eKyOWcJKqV3oVxr9_lFu-104" value="0..*" style="edgeStyle=orthogonalEdgeStyle;rounded=0;orthogonalLoop=1;jettySize=auto;html=1;entryX=0.5;entryY=0;entryDx=0;entryDy=0;endArrow=none;endFill=0;exitX=1;exitY=0.5;exitDx=0;exitDy=0;" parent="WIyWlLk6GJQsqaUBKTNV-1" source="eKyOWcJKqV3oVxr9_lFu-95" target="eKyOWcJKqV3oVxr9_lFu-44" edge="1">
          <mxGeometry x="0.8182" y="2" relative="1" as="geometry">
            <Array as="points">
              <mxPoint x="620" y="119" />
              <mxPoint x="620" y="259" />
            </Array>
            <mxPoint as="offset" />
          </mxGeometry>
        </mxCell>
        <mxCell id="eKyOWcJKqV3oVxr9_lFu-95" value="&lt;font style=&quot;font-size: 16px;&quot;&gt;Válaszol&lt;/font&gt;" style="rhombus;whiteSpace=wrap;html=1;" parent="WIyWlLk6GJQsqaUBKTNV-1" vertex="1">
          <mxGeometry x="440" y="89" width="80" height="60" as="geometry" />
        </mxCell>
        <mxCell id="eKyOWcJKqV3oVxr9_lFu-107" value="1" style="edgeStyle=orthogonalEdgeStyle;rounded=0;orthogonalLoop=1;jettySize=auto;html=1;entryX=0;entryY=0.5;entryDx=0;entryDy=0;endArrow=none;endFill=0;" parent="WIyWlLk6GJQsqaUBKTNV-1" source="eKyOWcJKqV3oVxr9_lFu-105" target="eKyOWcJKqV3oVxr9_lFu-44" edge="1">
          <mxGeometry x="0.6" relative="1" as="geometry">
            <Array as="points">
              <mxPoint x="560" y="279" />
              <mxPoint x="560" y="279" />
            </Array>
            <mxPoint as="offset" />
          </mxGeometry>
        </mxCell>
        <mxCell id="eKyOWcJKqV3oVxr9_lFu-105" value="&lt;font style=&quot;font-size: 16px;&quot;&gt;Tartozik&lt;/font&gt;" style="rhombus;whiteSpace=wrap;html=1;" parent="WIyWlLk6GJQsqaUBKTNV-1" vertex="1">
          <mxGeometry x="440" y="249" width="80" height="60" as="geometry" />
        </mxCell>
        <mxCell id="4_J3MpxmB3QuBLHWLx7g-9" value="2" style="edgeStyle=orthogonalEdgeStyle;rounded=0;orthogonalLoop=1;jettySize=auto;html=1;entryX=0;entryY=0.25;entryDx=0;entryDy=0;endArrow=none;endFill=0;" parent="WIyWlLk6GJQsqaUBKTNV-1" source="4_J3MpxmB3QuBLHWLx7g-5" target="eKyOWcJKqV3oVxr9_lFu-29" edge="1">
          <mxGeometry x="0.8942" relative="1" as="geometry">
            <mxPoint x="230" y="360" as="targetPoint" />
            <Array as="points">
              <mxPoint x="210" y="400" />
              <mxPoint x="210" y="349" />
            </Array>
            <mxPoint as="offset" />
          </mxGeometry>
        </mxCell>
        <mxCell id="4_J3MpxmB3QuBLHWLx7g-5" value="&lt;font style=&quot;font-size: 16px;&quot;&gt;Tartozik&lt;/font&gt;" style="rhombus;whiteSpace=wrap;html=1;" parent="WIyWlLk6GJQsqaUBKTNV-1" vertex="1">
          <mxGeometry x="112" y="370" width="80" height="60" as="geometry" />
        </mxCell>
        <mxCell id="4_J3MpxmB3QuBLHWLx7g-8" value="1" style="edgeStyle=orthogonalEdgeStyle;rounded=0;orthogonalLoop=1;jettySize=auto;html=1;exitX=0;exitY=0.5;exitDx=0;exitDy=0;endArrow=none;endFill=0;" parent="WIyWlLk6GJQsqaUBKTNV-1" source="4_J3MpxmB3QuBLHWLx7g-5" edge="1">
          <mxGeometry x="0.5" relative="1" as="geometry">
            <mxPoint x="98" y="410" as="sourcePoint" />
            <mxPoint x="92" y="460" as="targetPoint" />
            <Array as="points">
              <mxPoint x="92" y="409" />
              <mxPoint x="92" y="462" />
            </Array>
            <mxPoint as="offset" />
          </mxGeometry>
        </mxCell>
        <mxCell id="m_a15SolpmZx5UkhQvhr-2" style="edgeStyle=orthogonalEdgeStyle;rounded=0;orthogonalLoop=1;jettySize=auto;html=1;entryX=0;entryY=0.5;entryDx=0;entryDy=0;endArrow=none;startFill=0;" edge="1" parent="WIyWlLk6GJQsqaUBKTNV-1" source="m_a15SolpmZx5UkhQvhr-0" target="m_a15SolpmZx5UkhQvhr-1">
          <mxGeometry relative="1" as="geometry" />
        </mxCell>
        <mxCell id="m_a15SolpmZx5UkhQvhr-5" value="1" style="edgeLabel;html=1;align=center;verticalAlign=middle;resizable=0;points=[];" vertex="1" connectable="0" parent="m_a15SolpmZx5UkhQvhr-2">
          <mxGeometry x="-0.7259" relative="1" as="geometry">
            <mxPoint as="offset" />
          </mxGeometry>
        </mxCell>
        <mxCell id="m_a15SolpmZx5UkhQvhr-0" value="&lt;span style=&quot;font-size: 16px;&quot;&gt;Regisztárció kérelem&lt;/span&gt;" style="rounded=1;whiteSpace=wrap;html=1;" vertex="1" parent="WIyWlLk6GJQsqaUBKTNV-1">
          <mxGeometry x="80" y="109" width="98" height="40" as="geometry" />
        </mxCell>
        <mxCell id="m_a15SolpmZx5UkhQvhr-1" value="&lt;font style=&quot;font-size: 16px;&quot;&gt;Léterhoz&lt;/font&gt;" style="rhombus;whiteSpace=wrap;html=1;" vertex="1" parent="WIyWlLk6GJQsqaUBKTNV-1">
          <mxGeometry x="232" y="99" width="80" height="60" as="geometry" />
        </mxCell>
        <mxCell id="m_a15SolpmZx5UkhQvhr-3" style="edgeStyle=orthogonalEdgeStyle;rounded=0;orthogonalLoop=1;jettySize=auto;html=1;endArrow=none;startFill=0;" edge="1" parent="WIyWlLk6GJQsqaUBKTNV-1" source="m_a15SolpmZx5UkhQvhr-1">
          <mxGeometry relative="1" as="geometry">
            <mxPoint x="366" y="340" as="targetPoint" />
          </mxGeometry>
        </mxCell>
        <mxCell id="m_a15SolpmZx5UkhQvhr-4" value="1" style="edgeLabel;html=1;align=center;verticalAlign=middle;resizable=0;points=[];" vertex="1" connectable="0" parent="m_a15SolpmZx5UkhQvhr-3">
          <mxGeometry x="0.8433" y="-1" relative="1" as="geometry">
            <mxPoint as="offset" />
          </mxGeometry>
        </mxCell>
      </root>
    </mxGraphModel>
  </diagram>
</mxfile>
